<?xml version="1.0" encoding="utf-8"?>
<!-- Generator: Adobe Illustrator 19.0.0, SVG Export Plug-In . SVG Version: 6.00 Build 0)  -->
<svg version="1.1" id="Layer_1" xmlns="http://www.w3.org/2000/svg" xmlns:xlink="http://www.w3.org/1999/xlink" x="0px" y="0px"
	 viewBox="0 0 500 500" style="enable-background:new 0 0 500 500;" xml:space="preserve">
<style type="text/css">
	.st0{fill:#0A306C;}
	.st1{fill:#9AD142;}
	.st2{fill:#FF8000;}
	.st3{fill:#FFFFFF;}
	.st4{fill:#001A5C;}
</style>
<g id="XMLID_1_">
	<ellipse id="XMLID_3_" class="st0" cx="302.9" cy="250" rx="57.4" ry="59"/>
	<ellipse id="XMLID_4_" class="st1" cx="302.8" cy="252.3" rx="29.9" ry="29.4"/>
	<ellipse id="XMLID_5_" class="st2" cx="330.4" cy="252.8" rx="29.9" ry="29.4"/>
	<path id="XMLID_6_" class="st3" d="M314.7,277.9c-3.8-2.3-7.6-6-9.9-9.7c-2.1-3.3-3.5-7.1-4.1-11.1c-0.3-1.7-0.3-6.9,0-8.6
		c1.4-8.9,6.8-16.6,14.6-21.1l1.5-0.9l0.9,0.5c1.7,0.9,4.1,2.8,5.7,4.3c9.1,8.7,11.5,22,6.2,33.4c-2.4,5.2-6.7,9.8-11.9,12.9
		c-0.9,0.5-1.7,1-1.8,1C315.9,278.5,315.3,278.2,314.7,277.9z"/>
	<ellipse id="XMLID_7_" class="st0" cx="402.6" cy="252.1" rx="29.9" ry="29.4"/>
	<path id="XMLID_13_" class="st4" d="M109.4,285.2H67.5v-65.8h40.3V230H81.5v16.8h24.4v10.5H81.5v17.3h27.9V285.2z M121.8,285.2
		v-65.8h24.6c7.4,0,13.3,1.3,17.5,4c4.2,2.7,6.3,6.5,6.3,11.3c0,3.5-1.2,6.6-3.7,9.3c-2.5,2.7-5.8,4.6-9.9,5.8v0.1
		c5.1,0.6,9.2,2.3,12.2,5.2c3,2.9,4.5,6.4,4.5,10.6c0,5.9-2.3,10.6-7,14.1c-4.7,3.5-10.9,5.3-18.7,5.3H121.8z M135.8,229.2v17.2h7.6
		c3.8,0,6.7-0.8,8.9-2.4c2.1-1.6,3.2-3.9,3.2-6.9c0-5.3-4.2-8-12.5-8H135.8z M135.8,256.3v19.1h9.6c4.1,0,7.3-0.9,9.6-2.6
		c2.3-1.7,3.4-4.1,3.4-7.2c0-6.2-4.5-9.3-13.6-9.3H135.8z M182.6,269.6c5.7,4.3,12.3,6.5,19.7,6.5c4.5,0,7.8-0.7,10-2.1
		c2.2-1.4,3.3-3.3,3.3-5.6c0-2-0.9-3.8-2.8-5.5c-1.8-1.7-6.3-3.9-13.3-6.6c-6-2.4-10.4-5.2-13.1-8.2c-2.7-3.1-4.1-6.6-4.1-10.7
		c0-5.9,2.5-10.6,7.6-13.9c5-3.4,11.7-5,19.9-5c7.3,0,13.1,0.8,17.4,2.5v12.2c-4.7-2.9-10.3-4.4-17-4.4c-3.9,0-7.1,0.7-9.5,2
		c-2.4,1.3-3.6,3.2-3.6,5.5c0,1.9,0.8,3.6,2.5,5.1c1.7,1.5,5.6,3.6,11.8,6c7.1,2.8,12,5.7,14.8,8.8c2.8,3.1,4.1,6.8,4.1,11.1
		c0,6.2-2.4,10.9-7.3,14.2c-4.9,3.3-11.7,4.9-20.5,4.9c-8.2,0-14.8-1.2-19.9-3.7V269.6z"/>
</g>
</svg>
